<svg xmlns="http://www.w3.org/2000/svg" width="117.99" height="44.71" viewBox="0 0 117.99 44.71">
  <g id="グループ_166" data-name="グループ 166" transform="translate(0)">
    <path id="パス_5" data-name="パス 5" d="M-55.71.13A2.64,2.64,0,0,0-53.58-.9l-.23-.24a2.4,2.4,0,0,1-1.88.92c-1.62,0-2.63-1.35-2.63-3.43s1.01-3.39,2.67-3.39a2.11,2.11,0,0,1,1.62.76l.23-.25a2.419,2.419,0,0,0-1.85-.86c-1.84,0-3.06,1.45-3.06,3.74S-57.5.13-55.71.13Zm5.75,0c1.72,0,2.95-1.49,2.95-3.78s-1.23-3.74-2.95-3.74-2.95,1.45-2.95,3.74S-51.68.13-49.96.13Zm0-.35c-1.53,0-2.56-1.35-2.56-3.43s1.03-3.39,2.56-3.39,2.56,1.31,2.56,3.39S-48.43-.22-49.96-.22Zm4.52.22h.35V-4.73c0-.69-.02-1.31-.04-1.99h.04l.83,1.43L-41.07,0h.4V-7.26h-.36v4.67c0,.68.02,1.35.06,2.05h-.05l-.83-1.43-3.2-5.29h-.39Zm8.66.13a2.018,2.018,0,0,0,2.27-1.92c0-1.12-.72-1.55-1.54-1.92l-1.11-.5c-.51-.23-1.27-.56-1.27-1.47,0-.82.67-1.36,1.68-1.36A2.343,2.343,0,0,1-35-6.28l.23-.25a2.664,2.664,0,0,0-1.98-.86,1.846,1.846,0,0,0-2.06,1.75c0,1.07.85,1.5,1.48,1.78l1.11.5c.73.33,1.34.63,1.34,1.6,0,.91-.74,1.54-1.9,1.54a2.838,2.838,0,0,1-2.17-1.01l-.25.26A3.093,3.093,0,0,0-36.78.13ZM-31.74,0h.39V-6.93h2.34v-.33h-5.07v.33h2.34Zm4.38-3.74V-6.93h1.51c1.33,0,2.07.41,2.07,1.54s-.74,1.65-2.07,1.65ZM-23.27,0l-2.05-3.44a1.882,1.882,0,0,0,1.94-1.95c0-1.34-.91-1.87-2.34-1.87h-2.01V0h.37V-3.42h1.61L-23.7,0Zm3.64.13c1.18,0,2.41-.6,2.41-2.85V-7.26h-.36V-2.8c0,1.99-.98,2.58-2.05,2.58-1.05,0-2.01-.59-2.01-2.58V-7.26h-.37v4.54C-22.01-.47-20.81.13-19.63.13Zm6.95,0A2.64,2.64,0,0,0-10.55-.9l-.23-.24a2.4,2.4,0,0,1-1.88.92c-1.62,0-2.63-1.35-2.63-3.43s1.01-3.39,2.67-3.39A2.11,2.11,0,0,1-11-6.28l.23-.25a2.419,2.419,0,0,0-1.85-.86c-1.84,0-3.06,1.45-3.06,3.74S-14.47.13-12.68.13ZM-7.83,0h.39V-6.93H-5.1v-.33h-5.07v.33h2.34Zm4.01,0h.37V-7.26h-.37ZM1.07.13c1.72,0,2.95-1.49,2.95-3.78S2.79-7.39,1.07-7.39-1.88-5.94-1.88-3.65-.65.13,1.07.13Zm0-.35c-1.53,0-2.56-1.35-2.56-3.43S-.46-7.04,1.07-7.04,3.63-5.73,3.63-3.65,2.6-.22,1.07-.22ZM5.59,0h.35V-4.73c0-.69-.02-1.31-.04-1.99h.04l.83,1.43L9.96,0h.4V-7.26H10v4.67c0,.68.02,1.35.06,2.05h-.05L9.18-1.97,5.98-7.26H5.59ZM16.5,0h.37V-7.26H16.5Zm2.42,0h.35V-4.73c0-.69-.02-1.31-.04-1.99h.04l.83,1.43L23.29,0h.4V-7.26h-.36v4.67c0,.68.02,1.35.06,2.05h-.05l-.83-1.43-3.2-5.29h-.39Zm6.81,0h1.64c2.24,0,3.25-1.49,3.25-3.65s-1.01-3.61-3.26-3.61H25.73Zm.37-.33v-6.6h1.21c2.06,0,2.92,1.36,2.92,3.28S29.37-.33,27.31-.33Zm8.45.46c1.18,0,2.41-.6,2.41-2.85V-7.26H36.6V-2.8c0,1.99-.98,2.58-2.05,2.58-1.05,0-2.01-.59-2.01-2.58V-7.26h-.37v4.54C32.17-.47,33.37.13,34.55.13Zm6.17,0a2.018,2.018,0,0,0,2.27-1.92c0-1.12-.72-1.55-1.54-1.92l-1.11-.5c-.51-.23-1.27-.56-1.27-1.47,0-.82.67-1.36,1.68-1.36a2.343,2.343,0,0,1,1.75.76l.23-.25a2.664,2.664,0,0,0-1.98-.86,1.846,1.846,0,0,0-2.06,1.75c0,1.07.85,1.5,1.48,1.78l1.11.5c.73.33,1.34.63,1.34,1.6,0,.91-.74,1.54-1.9,1.54a2.838,2.838,0,0,1-2.17-1.01l-.25.26A3.093,3.093,0,0,0,40.72.13ZM45.76,0h.39V-6.93h2.34v-.33H43.42v.33h2.34Zm4.38-3.74V-6.93h1.51c1.33,0,2.07.41,2.07,1.54s-.74,1.65-2.07,1.65ZM54.23,0,52.18-3.44a1.882,1.882,0,0,0,1.94-1.95c0-1.34-.91-1.87-2.34-1.87H49.77V0h.37V-3.42h1.61L53.8,0Zm2.5,0h.37V-2.98l2.18-4.28h-.37L57.75-4.93c-.24.54-.52,1.05-.81,1.58H56.9c-.29-.53-.53-1.04-.8-1.58L54.95-7.26h-.4l2.18,4.28Z" transform="translate(58.71 44.58)" fill="#fff"/>
    <g id="グループ_132" data-name="グループ 132" transform="translate(0)">
      <path id="パス_6" data-name="パス 6" d="M-41.958,0h6.216V-12.6H-24.7v-5.208H-35.742v-8.106h12.936V-31.08H-41.958ZM1.68.588c7.6,0,12.012-4.242,12.012-14.574V-31.08H7.728v17.64c0,6.468-2.352,8.652-6.048,8.652-3.654,0-5.88-2.184-5.88-8.652V-31.08h-6.216v17.094C-10.416-3.654-5.88.588,1.68.588Zm30.828,0c6.678,0,9.618-4.788,9.618-10.626V-31.08H35.91v20.538c0,4.284-1.428,5.754-4.158,5.754-1.764,0-3.4-.966-4.62-3.234l-4.284,3.15A10.26,10.26,0,0,0,32.508.588Z" transform="translate(41.958 31.08)" fill="#fff"/>
      <path id="パス_7" data-name="パス 7" d="M-3.108,0H3.108V-31.08H-3.108Z" transform="translate(101.5 31.08)" fill="#fff"/>
    </g>
  </g>
</svg>
